<?xml version="1.0" encoding="UTF-8"?>
<svg width="752pt" height="752pt" version="1.1" viewBox="0 0 752 752" xmlns="http://www.w3.org/2000/svg">
 <g>
  <path d="m311.87 464.8c-5.2344 0-10.254 2.0781-13.953 5.7812-3.6992 3.6992-5.7812 8.7188-5.7812 13.953s2.082 10.25 5.7812 13.953c3.6992 3.6992 8.7188 5.7773 13.953 5.7773s10.254-2.0781 13.953-5.7773c3.6992-3.7031 5.7773-8.7188 5.7773-13.953s-2.0781-10.254-5.7773-13.953c-3.6992-3.7031-8.7188-5.7812-13.953-5.7812zm0 29.598v0.003907c-3.9922 0-7.5898-2.4062-9.1172-6.0938-1.5273-3.6836-0.67969-7.9297 2.1406-10.75 2.8203-2.8242 7.0664-3.668 10.75-2.1406 3.6875 1.5273 6.0938 5.125 6.0938 9.1172 0 2.6172-1.0391 5.125-2.8906 6.9766-1.8516 1.8477-4.3594 2.8906-6.9766 2.8906z"/>
  <path d="m527.75 415.46 21.359-128.26h-280.94l-12.332-39.465h-48c-2.7266 0-4.9336 2.2109-4.9336 4.9336 0 2.7266 2.207 4.9336 4.9336 4.9336h40.746l47.852 152.93-11.051 44.398h223.38c2.7227 0 4.9297-2.207 4.9297-4.9297 0-2.7266-2.207-4.9336-4.9297-4.9336h-210.75l7.3984-29.598zm-254.16-118.39h263.88l-3.3047 19.734h-254.8zm8.6836 29.602h250.26l-13.172 78.93h-214.1z"/>
  <path d="m474.22 464.8c-5.2305 0-10.25 2.0781-13.953 5.7812-3.6992 3.6992-5.7773 8.7188-5.7773 13.953s2.0781 10.25 5.7773 13.953c3.7031 3.6992 8.7227 5.7773 13.953 5.7773 5.2344 0 10.254-2.0781 13.953-5.7773 3.7031-3.7031 5.7812-8.7188 5.7812-13.953s-2.0781-10.254-5.7812-13.953c-3.6992-3.7031-8.7188-5.7812-13.953-5.7812zm0 29.598v0.003907c-3.9883 0-7.5859-2.4062-9.1133-6.0938-1.5273-3.6836-0.68359-7.9297 2.1367-10.75 2.8242-2.8242 7.0664-3.668 10.754-2.1406 3.6875 1.5273 6.0898 5.125 6.0898 9.1172 0 2.6172-1.0391 5.125-2.8906 6.9766-1.8477 1.8477-4.3594 2.8906-6.9766 2.8906z"/>
 </g>
</svg>
